<?xml version="1.0" standalone="no"?>
<!DOCTYPE svg PUBLIC "-//W3C//DTD SVG 20010904//EN"
 "http://www.w3.org/TR/2001/REC-SVG-20010904/DTD/svg10.dtd">
<svg version="1.0" xmlns="http://www.w3.org/2000/svg"
 width="256.000000pt" height="256.000000pt" viewBox="0 0 256.000000 256.000000"
 preserveAspectRatio="xMidYMid meet">
<metadata>
Created by potrace 1.11, written by Peter Selinger 2001-2013
</metadata>
<g transform="translate(0.000000,256.000000) scale(0.100000,-0.100000)"
fill="#000000" stroke="none">
<path d="M1200 2551 c-43 -13 -84 -37 -514 -295 -360 -216 -425 -258 -458
-299 -69 -88 -69 -88 -66 -698 l3 -544 28 -57 c15 -31 43 -70 62 -87 57 -50
883 -540 938 -556 64 -19 110 -19 173 0 27 8 249 135 494 282 411 247 447 272
477 316 63 94 63 98 63 667 0 570 0 574 -63 667 -30 44 -70 70 -478 316 -245
148 -466 274 -493 282 -53 16 -125 18 -166 6z"/>
</g>
</svg>
